<svg xmlns="http://www.w3.org/2000/svg" xmlns:xlink="http://www.w3.org/1999/xlink" width="35" height="35" viewBox="0 0 35 35">
  <defs>
    <clipPath id="clip-path">
      <rect id="Ret칙ngulo_63" data-name="Ret칙ngulo 63" width="35" height="35" transform="translate(-1731 142)" fill="#5da6f6" stroke="#707070" stroke-width="1"/>
    </clipPath>
  </defs>
  <g id="Grupo_de_m치scara_13" data-name="Grupo de m치scara 13" transform="translate(1731 -142)" clip-path="url(#clip-path)">
    <g id="b" transform="translate(-1730.06 142.001)">
      <g id="c">
        <g id="Grupo_59" data-name="Grupo 59">
          <path id="Caminho_35" data-name="Caminho 35" d="M.5,35c-.158-.168-.385-.311-.458-.509-.161-.444.178-.84.7-.853.5-.014.995,0,1.526,0v-.407c0-1.822.039-3.646-.013-5.467A1.949,1.949,0,0,1,4.373,25.62c.954.049,1.913.009,2.869.01a1.857,1.857,0,0,1,2.036,2.036c.006,1.834,0,3.667,0,5.5V33.6h3.8v-.39q0-5.655,0-11.31a1.847,1.847,0,0,1,1.456-1.961,2.7,2.7,0,0,1,.576-.049q1.469-.006,2.939,0a1.865,1.865,0,0,1,2.06,2.048q0,5.622,0,11.242v.427h3.812V33.18q0-10.541-.005-21.082a1.855,1.855,0,0,1,1.048-1.87,2.423,2.423,0,0,1,.957-.185c1-.023,2-.012,3.006-.008a1.844,1.844,0,0,1,2.009,2.023c.006,1.651,0,3.3,0,4.955v16.62h1.27c.5,0,.787.161.877.49.1.357-.033.6-.47.877H.5Zm29.078-1.383V12.136c0-.633-.1-.737-.734-.737h-2.8c-.652,0-.746.1-.746.756v21.46h4.283Zm-10.844,0c.007-.069.015-.114.015-.158q0-5.8,0-11.609c0-.422-.175-.586-.615-.587-.967,0-1.935,0-2.9,0-.657,0-.78.122-.78.77V33.61h4.283Zm-10.851,0a.7.7,0,0,0,.027-.122c0-1.981.007-3.962,0-5.943,0-.4-.175-.55-.577-.551-1.014,0-2.026,0-3.04,0-.525,0-.663.139-.663.669q0,2.817,0,5.635c0,.1.01.2.016.312H7.881Z" fill="#5da6f6"/>
          <path id="Caminho_36" data-name="Caminho 36" d="M21.835,8.092l6.7-6.7a2.184,2.184,0,0,0-.24-.026c-.7,0-1.389,0-2.084,0-.5,0-.818-.264-.827-.67S25.7,0,26.217,0q1.93,0,3.861,0c.608,0,.857.237.862.843q.014,1.827,0,3.655c0,.514-.262.818-.672.823s-.681-.3-.69-.809c-.01-.58,0-1.162,0-1.742V2.362c-.148.136-.238.213-.322.3L22.536,9.373c-.536.536-.83.533-1.374-.01L18.888,7.094a1.545,1.545,0,0,1-.14-.116,2.013,2.013,0,0,1-.227.342Q12.9,12.954,7.265,18.58a2.708,2.708,0,0,1-.355.318.665.665,0,0,1-.936-.913,1.984,1.984,0,0,1,.265-.31q5.953-5.957,11.908-11.912c.523-.523.824-.521,1.354.009l2.1,2.1c.079.079.162.153.229.217Z" fill="#5da6f6"/>
          <path id="Caminho_37" data-name="Caminho 37" d="M4.906,20.727a.672.672,0,0,1-1.345.01.672.672,0,1,1,1.344-.01Z" fill="#5da6f6"/>
        </g>
      </g>
    </g>
  </g>
</svg>
