<svg xmlns="http://www.w3.org/2000/svg" xmlns:xlink="http://www.w3.org/1999/xlink" width="35" height="35" viewBox="0 0 35 35">
  <defs>
    <clipPath id="clip-path">
      <rect id="Ret칙ngulo_62" data-name="Ret칙ngulo 62" width="35" height="35" transform="translate(-2040 142)" fill="#5da6f6" stroke="#707070" stroke-width="1"/>
    </clipPath>
  </defs>
  <g id="Grupo_de_m치scara_12" data-name="Grupo de m치scara 12" transform="translate(2040 -142)" clip-path="url(#clip-path)">
    <g id="b" transform="translate(-2039.319 142.001)">
      <g id="c">
        <g id="Grupo_58" data-name="Grupo 58">
          <path id="Caminho_26" data-name="Caminho 26" d="M8.271,0c.068.073.173.138.194.222a.806.806,0,0,1,.03.509.668.668,0,0,1-.457.28c-.418.039-.842.01-1.263.015A2.2,2.2,0,0,0,4.533,3.22q-.033,4.561,0,9.125a2.181,2.181,0,0,0,2.2,2.2c3,.02,5.992.009,8.988,0a.711.711,0,0,0,.368-.133,1.988,1.988,0,0,1,2.334-.01.893.893,0,0,0,.467.143q3.914.012,7.826.005a2.249,2.249,0,0,0,2.39-2.4q0-4.357,0-8.715a2.241,2.241,0,0,0-2.414-2.407H10.906c-.079,0-.16,0-.239,0-.287.014-.558-.015-.683-.327s.054-.513.269-.7H27.342c.183.054.367.1.549.163a3.241,3.241,0,0,1,2.237,3.114c.016,3.007.021,6.015,0,9.022a3.241,3.241,0,0,1-3.351,3.276c-2.381.009-4.762,0-7.143,0h-.41v3.8a2.055,2.055,0,0,1,2.7.982,2.05,2.05,0,0,1,1.66-.222,1.985,1.985,0,0,1,1.247,1.115,6.06,6.06,0,0,1,.933-.2,1.865,1.865,0,0,1,1.976,1.79c.02.409.013.82,0,1.23a.505.505,0,0,1-.52.552c-.3,0-.494-.212-.5-.566s0-.707,0-1.059a.877.877,0,1,0-1.752-.028c-.034.522-.184.74-.509.74-.343,0-.516-.258-.518-.773,0-.331.009-.661-.008-.991a.917.917,0,0,0-.917-.876.927.927,0,0,0-.937.895c-.014.387,0,.774,0,1.162a.513.513,0,1,1-1.02.012c-.009-.66.008-1.321-.011-1.982a.932.932,0,0,0-1.423-.793.758.758,0,0,0-.406.7c.011.66,0,1.321,0,1.983,0,.411-.177.641-.489.653s-.533-.239-.534-.652q0-3.468,0-6.938a.933.933,0,1,0-1.857-.172c-.016.409,0,.82-.007,1.23s-.2.621-.53.613-.49-.219-.493-.607c0-.512,0-1.025,0-1.6h-.385c-2.688,0-5.377.005-8.065,0a3.243,3.243,0,0,1-3.262-2.532,4.148,4.148,0,0,1-.09-.915q-.01-4.341,0-8.681A3.251,3.251,0,0,1,6.205.05.345.345,0,0,0,6.29,0H8.273Z" fill="#5da6f6"/>
          <path id="Caminho_27" data-name="Caminho 27" d="M15.305,21.963c-.766-.051-1.4.357-1.424,1.022a19.27,19.27,0,0,0,.066,3.029,3.649,3.649,0,0,0,1.577,2.543,3.667,3.667,0,0,1,1.575,2.19.272.272,0,0,0,.208.152c2.63.008,5.26.006,7.918.006a2.676,2.676,0,0,1,.093-.542,11.573,11.573,0,0,1,.718-1.681,4.305,4.305,0,0,0,.689-2.077.513.513,0,0,1,.529-.545.526.526,0,0,1,.489.588,4.516,4.516,0,0,1-.825,2.525,3.3,3.3,0,0,0-.631,1.7c.2.03.383.045.557.086a1.433,1.433,0,0,1,1.109,1.35c.014.4.009.8,0,1.2a1.457,1.457,0,0,1-1.493,1.49c-1.2.008-2.392,0-3.588,0h-6.8a1.493,1.493,0,0,1-1.64-1.628c0-.227,0-.456,0-.683,0-1.155.451-1.667,1.625-1.808a2.189,2.189,0,0,0-.817-1.244,10.107,10.107,0,0,1-.985-.84,5.2,5.2,0,0,1-1.448-3.688q0-.837,0-1.674a2.3,2.3,0,0,1,2.366-2.519.773.773,0,0,0,.129-.034c0-.369,0-.742,0-1.115s.2-.6.5-.608a.53.53,0,0,1,.521.594q.007,2.648,0,5.3c0,.375-.2.594-.512.6s-.508-.211-.51-.591c0-.9,0-1.8,0-2.7v-.391Zm5.886,12.011h5.122c.487,0,.619-.137.621-.632,0-.273,0-.546,0-.819,0-.44-.152-.588-.6-.589-.831,0-1.662,0-2.493,0H16.126c-.529,0-.66.134-.663.669,0,.216,0,.433,0,.648,0,.609.113.723.709.723h5.02Z" fill="#5da6f6"/>
          <path id="Caminho_28" data-name="Caminho 28" d="M33.637,14.581c0,.449-.268.694-.589.624a10.858,10.858,0,0,1-1.211-.337.471.471,0,0,1-.309-.6.5.5,0,0,1,.608-.36,8.351,8.351,0,0,1,1.142.331c.169.068.285.27.36.346Z" fill="#5da6f6"/>
          <path id="Caminho_29" data-name="Caminho 29" d="M0,14.544a1.38,1.38,0,0,1,.387-.32,8.655,8.655,0,0,1,1.077-.311.509.509,0,0,1,.639.356.5.5,0,0,1-.348.617c-.378.121-.761.228-1.147.315-.355.079-.64-.179-.607-.657Z" fill="#5da6f6"/>
          <path id="Caminho_30" data-name="Caminho 30" d="M32.3,17.1c-.1.121-.193.323-.34.382a.614.614,0,0,1-.524-.057,8.02,8.02,0,0,1-.889-.89.455.455,0,0,1,.009-.649A.438.438,0,0,1,31.2,15.8a13.353,13.353,0,0,1,.981.988A1.139,1.139,0,0,1,32.3,17.1Z" fill="#5da6f6"/>
          <path id="Caminho_31" data-name="Caminho 31" d="M1.914,17.561c-.43-.013-.7-.463-.464-.762a6.062,6.062,0,0,1,.977-.988.668.668,0,0,1,.581.034.39.39,0,0,1,.127.594,14.054,14.054,0,0,1-1.012,1.049C2.066,17.544,1.957,17.547,1.914,17.561Z" fill="#5da6f6"/>
          <path id="Caminho_32" data-name="Caminho 32" d="M4.427,16.746c.415.009.668.275.61.572-.081.41-.193.815-.313,1.216a.461.461,0,0,1-.587.333.443.443,0,0,1-.383-.55,7.867,7.867,0,0,1,.322-1.247c.058-.157.272-.257.351-.325Z" fill="#5da6f6"/>
          <path id="Caminho_33" data-name="Caminho 33" d="M29.888,18.27c0,.354-.125.544-.4.6a.453.453,0,0,1-.573-.306,10.989,10.989,0,0,1-.323-1.248.46.46,0,0,1,.362-.542.444.444,0,0,1,.589.269c.149.426.246.87.343,1.229Z" fill="#5da6f6"/>
          <path id="Caminho_34" data-name="Caminho 34" d="M18.545,11.421H15.91a1.7,1.7,0,0,1-.934,2.161,1.638,1.638,0,0,1-1.854-.376,1.708,1.708,0,0,1-.229-2.037,4.43,4.43,0,0,1-.39-.364,1.743,1.743,0,0,1-.367-1.812.38.38,0,0,0-.072-.412,1.811,1.811,0,0,1-.356-.788C11.543,6.3,11.412,4.8,11.288,3.3c-.026-.316-.142-.45-.463-.437-.386.016-.774.009-1.162,0a.513.513,0,1,1-.005-1.02c.456-.009.911-.016,1.366,0a1.217,1.217,0,0,1,1.174.836c.081.221.188.258.394.258q4.1-.008,8.2,0c.662,0,.83.177.735.818q-.3,2.042-.627,4.081a1.277,1.277,0,0,1-1.385,1.141c-1.925.005-3.849,0-5.774,0-.472,0-.614.1-.678.472a.772.772,0,0,0,.48.852,1.732,1.732,0,0,0,.537.07c2.027,0,4.055,0,6.081.006a1.65,1.65,0,0,1,1.624,1.428,1.674,1.674,0,0,1-1.13,1.816A1.585,1.585,0,0,1,19,13.277a1.6,1.6,0,0,1-.51-1.58c.016-.086.032-.173.052-.277Zm-1.1-7.43H15.306c.031.5.061.969.091,1.452h1.956C17.384,4.958,17.412,4.487,17.443,3.992Zm3.012,0H18.471c-.028.492-.056.962-.084,1.452h1.839c.076-.482.149-.951.228-1.452ZM12.516,5.438h1.847c-.03-.5-.058-.967-.088-1.448h-1.9c.048.5.095.968.142,1.448Zm1.9,1.076h-1.8c.036.4.05.777.113,1.144.018.11.165.276.26.281.492.028.987.013,1.513.013-.03-.5-.057-.964-.085-1.438Zm1.116,1.418h1.689c.028-.494.055-.962.081-1.418H15.445C15.474,7,15.5,7.446,15.532,7.932Zm2.8-1.436c-.026.5-.052.973-.078,1.461.471,0,.892.012,1.312-.008.1,0,.267-.1.284-.181.091-.414.143-.836.213-1.271H18.334Zm-3.364,5.539a.646.646,0,0,0-1.291.009.664.664,0,0,0,.652.652A.657.657,0,0,0,14.969,12.034Zm5.15-.626a.64.64,0,0,0-.636.657.646.646,0,0,0,1.292-.017.643.643,0,0,0-.657-.638Z" fill="#5da6f6"/>
        </g>
      </g>
    </g>
  </g>
</svg>
