<svg xmlns="http://www.w3.org/2000/svg" xmlns:xlink="http://www.w3.org/1999/xlink" width="35" height="35" viewBox="0 0 35 35">
  <defs>
    <clipPath id="clip-path">
      <rect id="Ret칙ngulo_80" data-name="Ret칙ngulo 80" width="35" height="35" transform="translate(-1730 146)" fill="#fff" stroke="#707070" stroke-width="1"/>
    </clipPath>
  </defs>
  <g id="Grupo_de_m치scara_19" data-name="Grupo de m치scara 19" transform="translate(1730 -146)" clip-path="url(#clip-path)">
    <g id="Camada_1-2" transform="translate(-1731.886 144.04)">
      <g id="Grupo_78" data-name="Grupo 78">
        <path id="Caminho_44" data-name="Caminho 44" d="M19.4,1.961H33.579c.726,0,.895.166.895.878,0,2.238-.006,4.475.006,6.714a1.163,1.163,0,0,1-.354.87Q28.74,16.074,23.361,21.731A1.215,1.215,0,0,0,23,22.66c.015,2.866,0,5.733.015,8.6a1.064,1.064,0,0,1-.451.926c-1.894,1.5-3.774,3.008-5.657,4.518-.235.188-.468.348-.785.2s-.358-.445-.358-.762q0-6.827.007-13.653a.835.835,0,0,0-.247-.632Q10.088,16.146,4.658,10.432a1.2,1.2,0,0,1-.366-.9C4.305,7.3,4.3,5.079,4.3,2.854c0-.726.165-.894.879-.894H19.4ZM16.973,35.1c1.569-1.255,3.058-2.452,4.556-3.636a.675.675,0,0,0,.278-.6c-.009-2.9,0-5.807-.012-8.711a1.208,1.208,0,0,1,.362-.9q5.451-5.719,10.879-11.457a.893.893,0,0,0,.222-.554c.016-1.9.01-3.8.009-5.694,0-.12-.011-.241-.016-.35H5.506c0,1.977.009,3.925-.009,5.872a1.128,1.128,0,0,0,.345.859q5.4,5.663,10.788,11.335a1.167,1.167,0,0,1,.348.872q-.014,6.24-.006,12.482V35.1Z" fill="#fff"/>
        <path id="Caminho_45" data-name="Caminho 45" d="M18.784,15.841c-.577,0-1.1,0-1.631,0-.5,0-.786-.225-.781-.612s.283-.594.8-.595c.9,0,1.81,0,2.715,0a1.211,1.211,0,1,0,0-2.414,11.871,11.871,0,0,1-1.431-.03,2.407,2.407,0,0,1-.1-4.756c.123-.024.248-.037.425-.062,0-.349,0-.708,0-1.068.005-.446.232-.716.6-.719s.6.267.609.708c.006.34.007.678.01,1.018,0,.011.009.021.038.083.561,0,1.147-.008,1.732,0A.6.6,0,0,1,22.4,8a.61.61,0,0,1-.647.594c-.088,0-.176,0-.264,0q-1.282,0-2.565,0a1.214,1.214,0,1,0,0,2.414,11.245,11.245,0,0,1,1.393.029,2.406,2.406,0,0,1,.1,4.755c-.123.024-.248.037-.424.063,0,.349,0,.707,0,1.067-.005.444-.234.717-.6.72s-.6-.267-.608-.708c-.005-.35,0-.7,0-1.1Z" fill="#fff"/>
        <path id="Caminho_46" data-name="Caminho 46" d="M7.92,5.582c0,1.017.018,1.983-.014,2.948a.833.833,0,0,1-.32.575A.642.642,0,0,1,7,9.083a.734.734,0,0,1-.277-.527c-.024-1.18-.018-2.361-.009-3.542a.584.584,0,0,1,.639-.634q2.375-.011,4.749,0a.6.6,0,0,1,.64.6.606.606,0,0,1-.674.6c-1.231.006-2.462,0-3.693,0H7.92Z" fill="#fff"/>
        <path id="Caminho_47" data-name="Caminho 47" d="M14.564,4.378a.6.6,0,1,1-.607.595.605.605,0,0,1,.607-.595Z" fill="#fff"/>
      </g>
    </g>
  </g>
</svg>
