<svg xmlns="http://www.w3.org/2000/svg" xmlns:xlink="http://www.w3.org/1999/xlink" width="35" height="35" viewBox="0 0 35 35">
  <defs>
    <clipPath id="clip-path">
      <rect id="Ret칙ngulo_60" data-name="Ret칙ngulo 60" width="35" height="35" fill="#fff" stroke="#707070" stroke-width="1"/>
    </clipPath>
  </defs>
  <g id="Grupo_de_m치scara_10" data-name="Grupo de m치scara 10" clip-path="url(#clip-path)">
    <g id="b" transform="translate(0 2.148)">
      <g id="c">
        <g id="Grupo_56" data-name="Grupo 56">
          <path id="Caminho_9" data-name="Caminho 9" d="M35,22.9a6.489,6.489,0,0,1-.3.755,2.375,2.375,0,0,1-1.571,1.162c-2,.528-4,1.069-6,1.6-2.219.592-4.436,1.193-6.66,1.764a6.123,6.123,0,0,1-1.485.186q-4.938.024-9.876.007a7.165,7.165,0,0,1-3.637-1.022c-.066-.038-.139-.067-.243-.117-.008.126-.018.222-.018.318,0,.831,0,1.663,0,2.494a.568.568,0,0,1-.65.65q-1.947.007-3.9,0c-.454,0-.66-.214-.66-.678Q0,23.463,0,16.9A.6.6,0,0,1,.67,16.22q1.931-.012,3.862,0c.473,0,.675.22.677.7q.007,1.264,0,2.529c0,.208.032.272.24.147a7.469,7.469,0,0,1,4.108-1.055c.249.006.3-.079.3-.31q-.01-5.484,0-10.969c0-.232-.051-.328-.3-.31a6.462,6.462,0,0,1-.82,0,.568.568,0,0,1-.611-.628q-.009-2.854,0-5.706A.563.563,0,0,1,8.739,0c.08,0,.16,0,.239,0H33.89c.733,0,.884.15.884.877V6.142c0,.632-.185.81-.814.821-.3,0-.7-.075-.876.083-.151.136-.057.555-.057.848q0,6-.006,11.994c0,.25.044.366.318.444a2.241,2.241,0,0,1,1.585,1.6c.023.074.051.147.076.22V22.9ZM21.456,6.958c-3.361,0-6.721,0-10.083-.007-.3,0-.374.08-.373.378.012,3.577.007,7.155.007,10.732a.415.415,0,0,0,.464.475c1.037,0,2.074-.016,3.11.008a14.382,14.382,0,0,1,3.256.721c1.848.483,3.692.985,5.54,1.471a2.4,2.4,0,0,1,1.638,1.179c.111.213.222.221.424.165q3.045-.829,6.1-1.634a.367.367,0,0,0,.334-.432q-.014-6.34,0-12.68c0-.331-.107-.384-.4-.383q-5.007.014-10.014.006ZM13.994,27.226c1.549,0,3.1.025,4.648-.012a9.776,9.776,0,0,0,1.987-.264c1.327-.314,2.64-.691,3.958-1.044q4.1-1.1,8.2-2.2a1.883,1.883,0,0,0,.561-.237,1.137,1.137,0,0,0,.377-1.426,1.152,1.152,0,0,0-1.406-.611c-2.253.6-4.5,1.208-6.756,1.808a.348.348,0,0,0-.3.3,2.254,2.254,0,0,1-2.631,1.78c-1.725-.41-3.432-.9-5.146-1.354a.511.511,0,0,1-.432-.506.734.734,0,0,1,.249-.516.785.785,0,0,1,.574-.06c1.6.41,3.187.846,4.782,1.265a1.156,1.156,0,0,0,1.5-1.018,1.2,1.2,0,0,0-.994-1.244c-2.064-.554-4.128-1.118-6.2-1.652a12.7,12.7,0,0,0-2.529-.519c-1.762-.08-3.53-.037-5.295-.017a6.255,6.255,0,0,0-3.716,1.275.5.5,0,0,0-.233.448q.014,2.034,0,4.066a.52.52,0,0,0,.251.476,6.347,6.347,0,0,0,3.824,1.259c1.572,0,3.144,0,4.716,0ZM21.441,1.16q-5.912,0-11.826-.006c-.261,0-.349.058-.346.334.015,1.321.012,2.643,0,3.965,0,.252.045.355.333.354q11.842-.012,23.685,0c.252,0,.332-.064.329-.322-.013-1.3-.006-2.6-.006-3.9A.372.372,0,0,0,33.2,1.16H21.441ZM4.05,23.484c0-1.913-.008-3.827.008-5.74,0-.31-.091-.381-.385-.372-.717.021-1.436.025-2.152,0-.319-.013-.371.1-.368.385.015,1.218.007,2.438.007,3.656,0,2.586.007,5.171-.008,7.756,0,.324.1.394.4.385.717-.021,1.436-.021,2.152,0,.289.008.357-.083.355-.362-.013-1.9-.007-3.8-.007-5.706Z" transform="translate(-0.001 -0.001)" fill="#fff"/>
          <path id="Caminho_10" data-name="Caminho 10" d="M21.422,9.277h-2.63a1.735,1.735,0,0,1-.372-.03.544.544,0,0,1-.445-.6.53.53,0,0,1,.495-.52,2.083,2.083,0,0,1,.306-.013H24.1a1.846,1.846,0,0,1,.34.017.567.567,0,0,1,.079,1.093,1.5,1.5,0,0,1-.438.049c-.888,0-1.777,0-2.664,0Z" transform="translate(-0.001 -0.001)" fill="#fff"/>
        </g>
      </g>
    </g>
  </g>
</svg>
