<svg xmlns="http://www.w3.org/2000/svg" xmlns:xlink="http://www.w3.org/1999/xlink" width="35" height="35" viewBox="0 0 35 35">
  <defs>
    <clipPath id="clip-path">
      <rect id="Ret칙ngulo_61" data-name="Ret칙ngulo 61" width="35" height="35" transform="translate(-2343 142)" fill="#5da6f6" stroke="#707070" stroke-width="1"/>
    </clipPath>
  </defs>
  <g id="Grupo_de_m치scara_11" data-name="Grupo de m치scara 11" transform="translate(2343 -142)" clip-path="url(#clip-path)">
    <g id="b" transform="translate(-2342.994 142)">
      <g id="c">
        <g id="Grupo_57" data-name="Grupo 57">
          <path id="Caminho_11" data-name="Caminho 11" d="M34.927,35H33.833c.005-.079.016-.159.016-.237q.027-11.171.047-22.343a1.057,1.057,0,0,0-.129-.479c-.8-1.492-1.665-2.956-2.41-4.476a1.344,1.344,0,0,0-1.55-.913,15.919,15.919,0,0,1-1.9.016V8.229A6.137,6.137,0,0,1,28.38,7.7a2.935,2.935,0,0,1,.583-.41c.67-.345.969-.208,1.173.51q1,3.493,2,6.985a2.19,2.19,0,0,0,.258.55c.277.438.57.867.867,1.316l-.907.6c-.3-.449-.6-.878-.876-1.319a3.06,3.06,0,0,1-.359-.727c-.43-1.461-.839-2.928-1.257-4.393-.221-.774-.446-1.547-.7-2.429a9.821,9.821,0,0,0-.533.849,8.274,8.274,0,0,0-.678,2.8,3.594,3.594,0,0,0,.076,1.516c.488,1.539.93,3.091,1.41,4.632a.889.889,0,0,1-.182.935,6.152,6.152,0,0,0,.026,7.755,1.143,1.143,0,0,1,.236.675c.016,2.483.01,4.965.01,7.447H28.431c0-2.335-.017-4.67.014-7,.007-.53-.321-.8-.582-1.191a2.642,2.642,0,0,1-2.793,2.18q-6.236,0-12.472-.005a.737.737,0,0,0-.594.248c-.406.431-.827.847-1.255,1.257a1.51,1.51,0,0,0-.455.8,3.431,3.431,0,0,1-.457,1.054A4.243,4.243,0,0,1,7.7,34.031c-.506.192-.7.459-.6.968H6.012v-.82c0-.6.057-.683.634-.883a5.014,5.014,0,0,0,1.881-1.075,2.16,2.16,0,0,0,.755-1.447.973.973,0,0,1,.314-.685q2.494-2.482,4.977-4.975c.082-.082.159-.17.238-.255l-.042-.129a11.956,11.956,0,0,0-1.613.136A8.727,8.727,0,0,0,9.224,27.1c-.394.352-.672.333-1-.079q-.994-1.238-1.984-2.481c-.29-.364-.3-.506-.067-.89q2.129-3.46,4.257-6.919a6.593,6.593,0,0,0,.528-.951,2,2,0,0,0-.078-1.729c-.095.1-.166.17-.232.246q-4.69,5.428-9.371,10.863a.851.851,0,0,0-.178.516c-.011,3.109-.007,6.217-.007,9.327H0V24.949l.287-.329q3.283-3.8,6.57-7.6a.981.981,0,0,0,.258-.7Q7.1,9.556,7.109,2.791A2.607,2.607,0,0,1,9.911,0h8.474c2.289,0,4.578,0,6.869,0a2.577,2.577,0,0,1,2.6,2.24,5.123,5.123,0,0,1,.029.75c0,.816,0,1.633,0,2.476,1.026,0,2.015.018,3-.008a.873.873,0,0,1,.894.525c.989,1.845,2.005,3.674,2.992,5.521a1.847,1.847,0,0,1,.211.837Q34.98,23.5,34.945,34.657c0,.113-.011.226-.016.341ZM13.365,27.871c.127.01.171.017.215.017q5.843,0,11.687,0a1.5,1.5,0,0,0,1.526-1.579q0-11.807,0-23.614a1.5,1.5,0,0,0-1.61-1.6q-7.689,0-15.378,0A1.5,1.5,0,0,0,8.2,2.7q0,6.2,0,12.4c0,.084.015.167.028.312l2.16-2.5c.4-.467.727-.461,1.11.021a3.4,3.4,0,0,1,.093,4.021c-.546.867-1.084,1.739-1.624,2.608-.058.093-.11.19-.176.307.581.119,1.127.227,1.671.344.443.095.562.251.565.709,0,.16,0,.319,0,.478V24a.386.386,0,0,0,.1,0c.11-.03.218-.062.327-.095a4.843,4.843,0,0,1,3.532.159c.261.12.457.3.4.6a.973.973,0,0,1-.272.454c-.894.907-1.8,1.8-2.75,2.754Zm-3.519-4.9v2.206c.353-.212.65-.38.935-.566a.342.342,0,0,0,.149-.23q.015-1.485,0-2.97a.3.3,0,0,0-.179-.215c-.453-.107-.91-.2-1.371-.272a.393.393,0,0,0-.321.14c-.584.922-1.154,1.853-1.719,2.787a.3.3,0,0,0-.018.263c.448.582.91,1.151,1.369,1.725l.069-.022V22.976H9.845Zm18.1-5.921-.033.013v1.95c.19-.207.425-.451.4-.667a7.431,7.431,0,0,0-.368-1.3Z" fill="#5da6f6"/>
          <path id="Caminho_12" data-name="Caminho 12" d="M0,7.179A2.636,2.636,0,0,1,.588,6.7,3.289,3.289,0,0,0,2.537,4.744a1.587,1.587,0,0,1,.163-.3.545.545,0,0,1,.988.016c.253.431.475.88.729,1.31a.966.966,0,0,0,.325.323c.41.243.848.442,1.245.7a.96.96,0,0,1,.367.515c.068.264-.131.457-.368.546a3.914,3.914,0,0,0-2.277,2.274.535.535,0,0,1-1.033.008,3.95,3.95,0,0,0-2.3-2.3C.229,7.791.123,7.632,0,7.521Zm1.719.15A2.443,2.443,0,0,1,3.191,8.807a2.473,2.473,0,0,1,1.48-1.489A2.383,2.383,0,0,1,3.188,5.851,2.456,2.456,0,0,1,1.719,7.329Z" fill="#5da6f6"/>
          <path id="Caminho_13" data-name="Caminho 13" d="M31.7,2.214V3.264H30.637V2.214H31.7Z" fill="#5da6f6"/>
          <path id="Caminho_14" data-name="Caminho 14" d="M4.907,13.7v1.049H3.843V13.7H4.907Z" fill="#5da6f6"/>
          <path id="Caminho_15" data-name="Caminho 15" d="M20.214,31.7H19.162V30.645h1.052Z" fill="#5da6f6"/>
          <path id="Caminho_16" data-name="Caminho 16" d="M13.67,16.952V15.859h.386c1.765,0,3.53-.007,5.3.006.311,0,.493-.04.494-.4a4.267,4.267,0,0,1,.117-.7H14.406c-.492,0-.61-.084-.767-.553q-.764-2.279-1.524-4.561c-.2-.6.016-.9.644-.9h8.262c.1-.535.21-1.054.284-1.579a.673.673,0,0,1,.636-.634c.847-.152,1.688-.333,2.558-.509.072.367.138.7.211,1.067-.689.142-1.35.3-2.019.4-.285.045-.366.168-.412.427q-.737,4.235-1.493,8.467c-.068.38-.235.552-.575.553-2.162.005-4.325,0-6.539,0Zm-.329-7.094c.415,1.248.816,2.466,1.235,3.678.025.071.2.128.3.13.648.012,1.3.005,1.947.005h3.336c.226-1.277.447-2.536.673-3.814H13.342Z" fill="#5da6f6"/>
          <path id="Caminho_17" data-name="Caminho 17" d="M25.622,23.964c-.18.214-.275.433-.432.5a4.132,4.132,0,0,0-2.372,2.369c-.2.472-.731.447-.993,0-.213-.363-.423-.728-.6-1.108a1.3,1.3,0,0,0-.657-.65c-.358-.171-.7-.372-1.048-.569-.506-.289-.532-.825-.005-1.043a4.06,4.06,0,0,0,2.3-2.3.534.534,0,0,1,1.032,0,4.036,4.036,0,0,0,2.3,2.3c.176.07.289.3.474.5ZM22.34,25.449a2.4,2.4,0,0,1,1.466-1.488,2.46,2.46,0,0,1-1.487-1.467,2.4,2.4,0,0,1-1.464,1.484A2.438,2.438,0,0,1,22.34,25.449Z" fill="#5da6f6"/>
          <path id="Caminho_18" data-name="Caminho 18" d="M18.063,2.736a2.187,2.187,0,1,1-2.2,2.176,2.189,2.189,0,0,1,2.2-2.176Zm1.073,2.175a1.092,1.092,0,1,0-1.071,1.1,1.1,1.1,0,0,0,1.071-1.1Z" fill="#5da6f6"/>
          <path id="Caminho_19" data-name="Caminho 19" d="M16.4,19.148A1.639,1.639,0,1,1,14.79,17.5,1.646,1.646,0,0,1,16.4,19.148Zm-1.64.536a.545.545,0,1,0-.543-.537A.551.551,0,0,0,14.763,19.684Z" fill="#5da6f6"/>
          <path id="Caminho_20" data-name="Caminho 20" d="M19.687,20.779a1.639,1.639,0,1,1,1.637-1.623A1.646,1.646,0,0,1,19.687,20.779Zm-.006-1.095a.545.545,0,1,0-.54-.541.551.551,0,0,0,.54.541Z" fill="#5da6f6"/>
          <path id="Caminho_21" data-name="Caminho 21" d="M10.913,3.267H9.861V2.216h1.052V3.267Z" fill="#5da6f6"/>
          <path id="Caminho_22" data-name="Caminho 22" d="M11.5,3.256V2.21H12.56V3.256Z" fill="#5da6f6"/>
          <path id="Caminho_23" data-name="Caminho 23" d="M20.222,10.534c-.188.746-.367,1.457-.549,2.181l-1.055-.266c.183-.733.36-1.443.543-2.181Z" fill="#5da6f6"/>
          <path id="Caminho_24" data-name="Caminho 24" d="M16.392,12.438l-1.06.26c-.183-.726-.359-1.427-.546-2.174l1.055-.273.552,2.188Z" fill="#5da6f6"/>
          <path id="Caminho_25" data-name="Caminho 25" d="M16.98,10.4h1.039v2.157H16.98Z" fill="#5da6f6"/>
        </g>
      </g>
    </g>
  </g>
</svg>
